<svg width="44" height="44" viewBox="0 0 44 44" fill="none" xmlns="http://www.w3.org/2000/svg">
<path d="M22 44C34.1503 44 44 34.1503 44 22C44 9.84974 34.1503 0 22 0C9.84974 0 0 9.84974 0 22C0 34.1503 9.84974 44 22 44Z" fill="white"/>
<path d="M23.6761 23.8727H27.3598L28.0617 19.2783H23.6802V16.2986C23.6802 15.0421 24.2941 13.8162 26.2547 13.8162H28.2418V9.90531C27.0723 9.71478 25.8903 9.6108 24.7055 9.59424C21.0975 9.59424 18.7399 11.7942 18.7399 15.7788V19.2783H14.7349V23.8727H18.744V34.9771H23.6802L23.6761 23.8727Z" fill="#8A89C3"/>
</svg>
