<svg width="44" height="44" viewBox="0 0 44 44" fill="none" xmlns="http://www.w3.org/2000/svg">
<path d="M22 44C34.1503 44 44 34.1503 44 22C44 9.84974 34.1503 0 22 0C9.84974 0 0 9.84974 0 22C0 34.1503 9.84974 44 22 44Z" fill="#8A89C3"/>
<path d="M23.6756 23.8725H27.3593L28.0613 19.2781H23.6797V16.2984C23.6797 15.0418 24.2936 13.8159 26.2542 13.8159H28.2414V9.90506C27.0718 9.71453 25.8898 9.61056 24.705 9.59399C21.097 9.59399 18.7394 11.794 18.7394 15.7786V19.2781H14.7344V23.8725H18.7435V34.9769H23.6797L23.6756 23.8725Z" fill="white"/>
</svg>
