<svg width="44" height="44" viewBox="0 0 44 44" fill="none" xmlns="http://www.w3.org/2000/svg">
<path d="M22 44C34.1503 44 44 34.1503 44 22C44 9.84974 34.1503 0 22 0C9.84974 0 0 9.84974 0 22C0 34.1503 9.84974 44 22 44Z" fill="#8A89C3"/>
<path fill-rule="evenodd" clip-rule="evenodd" d="M21.9992 10.8466C25.028 10.8466 25.4087 10.8588 26.5977 10.9141C27.5231 10.9318 28.4386 11.1069 29.3052 11.4319C30.0459 11.719 30.7185 12.1574 31.2802 12.7191C31.8419 13.2807 32.2803 13.9534 32.5674 14.694C32.8917 15.5587 33.0667 16.4721 33.0851 17.3954C33.1404 18.5844 33.1527 18.9651 33.1527 21.9939C33.1527 25.0227 33.1404 25.4034 33.0851 26.5924C33.0674 27.5178 32.8924 28.4334 32.5674 29.3C32.2803 30.0406 31.8419 30.7132 31.2802 31.2749C30.7185 31.8366 30.0459 32.275 29.3052 32.5621C28.441 32.8885 27.5275 33.0656 26.6038 33.086C25.4148 33.1413 25.0342 33.1535 22.0053 33.1535C18.9765 33.1535 18.5958 33.1413 17.4068 33.086C16.4815 33.0683 15.5659 32.8932 14.6993 32.5682C13.9587 32.2811 13.286 31.8427 12.7243 31.281C12.1627 30.7193 11.7243 30.0467 11.4371 29.3061C11.1108 28.4418 10.9336 27.5283 10.9132 26.6047C10.858 25.4157 10.8457 25.035 10.8457 22.0062C10.8457 18.9773 10.858 18.5967 10.9132 17.4077C10.9309 16.4823 11.106 15.5667 11.431 14.7001C11.7174 13.9584 12.1555 13.2846 12.7172 12.7218C13.2789 12.159 13.9519 11.7197 14.6931 11.4319C15.5578 11.1076 16.4713 10.9325 17.3945 10.9141C18.5897 10.8588 18.9704 10.8466 21.9992 10.8466ZM26.5015 12.9217C25.3268 12.8685 24.9728 12.8562 21.9992 12.8562C19.0256 12.8562 18.6675 12.8685 17.4969 12.9217C16.7885 12.929 16.0866 13.0577 15.4217 13.3024C14.9398 13.4881 14.5023 13.7728 14.1371 14.1379C13.7719 14.5031 13.4873 14.9407 13.3015 15.4226C13.0566 16.086 12.9272 16.7865 12.9188 17.4936C12.8656 18.6683 12.8533 19.0224 12.8533 21.996C12.8533 24.9695 12.8656 25.3277 12.9188 26.4983C12.9263 27.2082 13.0557 27.9115 13.3015 28.5775C13.4873 29.0594 13.7719 29.497 14.1371 29.8622C14.5023 30.2273 14.9398 30.5119 15.4217 30.6977C16.0851 30.9426 16.7856 31.072 17.4928 31.0804C18.6675 31.1336 19.0215 31.1459 21.9951 31.1459C24.9687 31.1459 25.3268 31.1336 26.4974 31.0804C27.2073 31.073 27.9107 30.9435 28.5767 30.6977C29.0585 30.5119 29.4961 30.2273 29.8613 29.8622C30.2265 29.497 30.5111 29.0594 30.6969 28.5775C30.9418 27.9141 31.0712 27.2136 31.0796 26.5065C31.1328 25.3318 31.1451 24.9777 31.1451 22.0041C31.1451 19.0306 31.1328 18.6724 31.0796 17.5018C31.0721 16.7919 30.9427 16.0886 30.6969 15.4226C30.5111 14.9407 30.2265 14.5031 29.8613 14.1379C29.4961 13.7728 29.0585 13.4881 28.5767 13.3024C27.9131 13.0582 27.2126 12.9294 26.5056 12.9217H26.5015ZM21.9992 25.7186C22.7346 25.7186 23.4536 25.5005 24.0651 25.0919C24.6766 24.6833 25.1532 24.1025 25.4346 23.4231C25.7161 22.7436 25.7897 21.9959 25.6463 21.2746C25.5028 20.5533 25.1486 19.8907 24.6286 19.3707C24.1085 18.8506 23.446 18.4965 22.7246 18.353C22.0033 18.2095 21.2556 18.2831 20.5762 18.5646C19.8967 18.846 19.316 19.3226 18.9074 19.9342C18.4988 20.5457 18.2807 21.2646 18.2807 22C18.2812 22.9861 18.6732 23.9316 19.3704 24.6288C20.0676 25.3261 21.0131 25.718 21.9992 25.7186ZM21.9992 16.2719C23.1325 16.2719 24.2404 16.6079 25.1827 17.2376C26.1251 17.8672 26.8595 18.7622 27.2932 19.8092C27.7269 20.8563 27.8404 22.0084 27.6193 23.12C27.3982 24.2316 26.8525 25.2526 26.0511 26.054C25.2497 26.8554 24.2287 27.4011 23.1171 27.6222C22.0055 27.8433 20.8534 27.7298 19.8063 27.2961C18.7593 26.8624 17.8643 26.128 17.2347 25.1856C16.605 24.2433 16.269 23.1354 16.269 22.0021C16.269 20.4823 16.8727 19.0248 17.9473 17.9502C19.0219 16.8756 20.4794 16.2719 21.9992 16.2719ZM29.2909 16.0467C29.2909 16.3115 29.2124 16.5702 29.0653 16.7903C28.9183 17.0104 28.7092 17.182 28.4647 17.2833C28.2201 17.3846 27.951 17.4111 27.6914 17.3594C27.4318 17.3078 27.1933 17.1803 27.0061 16.9931C26.8189 16.806 26.6914 16.5675 26.6398 16.3079C26.5881 16.0482 26.6147 15.7791 26.716 15.5346C26.8173 15.29 26.9888 15.081 27.2089 14.9339C27.429 14.7868 27.6878 14.7083 27.9525 14.7083C28.3075 14.7083 28.6479 14.8493 28.8989 15.1003C29.1499 15.3513 29.2909 15.6918 29.2909 16.0467Z" fill="white"/>
</svg>
