<svg width="44" height="44" viewBox="0 0 44 44" fill="none" xmlns="http://www.w3.org/2000/svg">
<path d="M22 44C34.1503 44 44 34.1503 44 22C44 9.84974 34.1503 0 22 0C9.84974 0 0 9.84974 0 22C0 34.1503 9.84974 44 22 44Z" fill="white"/>
<path fill-rule="evenodd" clip-rule="evenodd" d="M21.9999 10.8467C25.0288 10.8467 25.4094 10.859 26.5984 10.9142C27.5238 10.9319 28.4394 11.107 29.306 11.432C30.0466 11.7191 30.7192 12.1575 31.2809 12.7192C31.8426 13.2809 32.281 13.9535 32.5681 14.6941C32.8924 15.5588 33.0675 16.4722 33.0859 17.3955C33.1411 18.5845 33.1534 18.9652 33.1534 21.994C33.1534 25.0229 33.1411 25.4035 33.0859 26.5925C33.0682 27.5179 32.8931 28.4335 32.5681 29.3001C32.281 30.0407 31.8426 30.7133 31.2809 31.275C30.7192 31.8367 30.0466 32.2751 29.306 32.5622C28.4417 32.8886 27.5282 33.0658 26.6046 33.0861C25.4156 33.1414 25.0349 33.1537 22.0061 33.1537C18.9772 33.1537 18.5966 33.1414 17.4076 33.0861C16.4822 33.0684 15.5666 32.8933 14.7 32.5684C13.9594 32.2812 13.2868 31.8428 12.7251 31.2811C12.1634 30.7195 11.725 30.0468 11.4379 29.3062C11.1115 28.4419 10.9343 27.5285 10.914 26.6048C10.8587 25.4158 10.8464 25.0351 10.8464 22.0063C10.8464 18.9775 10.8587 18.5968 10.914 17.4078C10.9317 16.4824 11.1068 15.5669 11.4317 14.7003C11.7181 13.9585 12.1562 13.2847 12.7179 12.7219C13.2797 12.1591 13.9527 11.7198 14.6939 11.432C15.5585 11.1077 16.472 10.9326 17.3953 10.9142C18.5904 10.859 18.9711 10.8467 21.9999 10.8467ZM26.5022 12.9218C25.3276 12.8686 24.9735 12.8564 21.9999 12.8564C19.0263 12.8564 18.6682 12.8686 17.4976 12.9218C16.7892 12.9291 16.0873 13.0578 15.4224 13.3025C14.9406 13.4883 14.503 13.7729 14.1378 14.1381C13.7727 14.5032 13.488 14.9408 13.3022 15.4227C13.0574 16.0861 12.9279 16.7866 12.9196 17.4938C12.8663 18.6684 12.8541 19.0225 12.8541 21.9961C12.8541 24.9697 12.8663 25.3278 12.9196 26.4984C12.927 27.2083 13.0564 27.9116 13.3022 28.5777C13.488 29.0595 13.7727 29.4971 14.1378 29.8623C14.503 30.2274 14.9406 30.5121 15.4224 30.6978C16.0859 30.9427 16.7864 31.0722 17.4935 31.0805C18.6682 31.1337 19.0223 31.146 21.9958 31.146C24.9694 31.146 25.3276 31.1337 26.4982 31.0805C27.2081 31.0731 27.9114 30.9436 28.5774 30.6978C29.0593 30.5121 29.4969 30.2274 29.862 29.8623C30.2272 29.4971 30.5118 29.0595 30.6976 28.5777C30.9425 27.9142 31.0719 27.2137 31.0803 26.5066C31.1335 25.3319 31.1458 24.9778 31.1458 22.0043C31.1458 19.0307 31.1335 18.6725 31.0803 17.5019C31.0729 16.792 30.9434 16.0887 30.6976 15.4227C30.5118 14.9408 30.2272 14.5032 29.862 14.1381C29.4969 13.7729 29.0593 13.4883 28.5774 13.3025C27.9139 13.0583 27.2134 12.9296 26.5063 12.9218H26.5022ZM21.9999 25.7187C22.7354 25.7187 23.4543 25.5006 24.0658 25.092C24.6773 24.6834 25.1539 24.1027 25.4354 23.4232C25.7168 22.7437 25.7905 21.996 25.647 21.2747C25.5035 20.5534 25.1494 19.8908 24.6293 19.3708C24.1093 18.8507 23.4467 18.4966 22.7254 18.3531C22.0041 18.2096 21.2564 18.2833 20.5769 18.5647C19.8974 18.8462 19.3167 19.3228 18.9081 19.9343C18.4995 20.5458 18.2814 21.2647 18.2814 22.0002C18.282 22.9862 18.6739 23.9317 19.3711 24.629C20.0684 25.3262 21.0139 25.7181 21.9999 25.7187ZM21.9999 16.272C23.1333 16.272 24.2411 16.6081 25.1835 17.2377C26.1258 17.8673 26.8603 18.7623 27.294 19.8093C27.7277 20.8564 27.8412 22.0086 27.62 23.1201C27.3989 24.2317 26.8532 25.2527 26.0518 26.0541C25.2504 26.8555 24.2294 27.4012 23.1178 27.6223C22.0063 27.8434 20.8541 27.73 19.8071 27.2963C18.76 26.8626 17.8651 26.1281 17.2354 25.1858C16.6058 24.2434 16.2697 23.1355 16.2697 22.0022C16.2697 20.4825 16.8734 19.025 17.948 17.9503C19.0227 16.8757 20.4802 16.272 21.9999 16.272ZM29.2916 16.0469C29.2916 16.3116 29.2131 16.5703 29.0661 16.7905C28.919 17.0106 28.71 17.1821 28.4654 17.2834C28.2209 17.3847 27.9517 17.4112 27.6921 17.3596C27.4325 17.3079 27.194 17.1805 27.0068 16.9933C26.8196 16.8061 26.6922 16.5676 26.6405 16.308C26.5889 16.0484 26.6154 15.7792 26.7167 15.5347C26.818 15.2901 26.9895 15.0811 27.2096 14.934C27.4297 14.7869 27.6885 14.7084 27.9532 14.7084C28.3082 14.7084 28.6486 14.8495 28.8996 15.1005C29.1506 15.3515 29.2916 15.6919 29.2916 16.0469Z" fill="#8A89C3"/>
</svg>
