<svg width="44" height="44" viewBox="0 0 44 44" fill="none" xmlns="http://www.w3.org/2000/svg">
<path d="M22 44C34.1503 44 44 34.1503 44 22C44 9.84974 34.1503 0 22 0C9.84974 0 0 9.84974 0 22C0 34.1503 9.84974 44 22 44Z" fill="#8A89C3"/>
<path fill-rule="evenodd" clip-rule="evenodd" d="M10.091 21.6214C16.4884 18.8341 20.754 16.9963 22.8879 16.1081C28.9824 13.5746 30.2553 13.1346 31.0739 13.1182C31.3775 13.1123 31.6752 13.2018 31.9253 13.374C32.1007 13.5253 32.2126 13.7373 32.2384 13.9675C32.2824 14.2538 32.2948 14.5441 32.2752 14.8332C31.9457 18.3122 30.5152 26.7214 29.7887 30.6077C29.4817 32.2449 28.8759 32.8036 28.2886 32.8588C27.0157 32.9755 26.0374 32.0157 24.8095 31.2073C22.8776 29.9405 21.7868 29.1608 19.9122 27.9165C17.745 26.484 19.1509 25.7042 20.385 24.4231C20.7083 24.0875 26.3199 18.9794 26.4304 18.5169C26.4449 18.4486 26.4433 18.3778 26.4255 18.3103C26.4077 18.2428 26.3743 18.1803 26.3281 18.1281C26.2609 18.0861 26.1848 18.0603 26.106 18.0529C26.0271 18.0454 25.9476 18.0564 25.8737 18.0851C25.6813 18.1274 22.5966 20.1664 16.6194 24.2021C15.7435 24.8038 14.9501 25.0971 14.2393 25.0821C13.4555 25.0637 11.9493 24.638 10.8278 24.2635C9.45455 23.8174 8.37196 23.582 8.45791 22.8309C8.50839 22.438 9.05276 22.0348 10.091 21.6214Z" fill="white"/>
</svg>
