<svg width="44" height="44" viewBox="0 0 44 44" fill="none" xmlns="http://www.w3.org/2000/svg">
<path d="M22 44C34.1503 44 44 34.1503 44 22C44 9.84974 34.1503 0 22 0C9.84974 0 0 9.84974 0 22C0 34.1503 9.84974 44 22 44Z" fill="white"/>
<path fill-rule="evenodd" clip-rule="evenodd" d="M10.0913 21.6212C16.4887 18.8339 20.7543 16.9961 22.8881 16.1079C28.9826 13.5743 30.2556 13.1343 31.0742 13.1179C31.3777 13.112 31.6755 13.2015 31.9255 13.3738C32.101 13.525 32.2128 13.737 32.2386 13.9673C32.2827 14.2536 32.295 14.5439 32.2755 14.8329C31.946 18.312 30.5155 26.7211 29.7889 30.6074C29.482 32.2446 28.8762 32.8033 28.2888 32.8586C27.0159 32.9752 26.0377 32.0154 24.8098 31.2071C22.8779 29.9403 21.7871 29.1606 19.9125 27.9163C17.7452 26.4837 19.1512 25.704 20.3852 24.4229C20.7086 24.0872 26.3201 18.9792 26.4306 18.5166C26.4452 18.4483 26.4435 18.3776 26.4257 18.31C26.408 18.2425 26.3746 18.1801 26.3283 18.1278C26.2611 18.0858 26.1851 18.0601 26.1062 18.0526C26.0273 18.0452 25.9478 18.0562 25.874 18.0848C25.6816 18.1271 22.5968 20.1661 16.6196 24.2019C15.7437 24.8035 14.9504 25.0969 14.2396 25.0819C13.4557 25.0634 11.9495 24.6378 10.828 24.2632C9.4548 23.8171 8.3722 23.5818 8.45816 22.8307C8.50864 22.4378 9.053 22.0346 10.0913 21.6212Z" fill="#8A89C3"/>
</svg>
