<svg width="44" height="44" viewBox="0 0 44 44" fill="none" xmlns="http://www.w3.org/2000/svg">
<path d="M22 44C34.1503 44 44 34.1503 44 22C44 9.84974 34.1503 0 22 0C9.84974 0 0 9.84974 0 22C0 34.1503 9.84974 44 22 44Z" fill="white"/>
<path d="M22.8063 30.1124C14.2764 30.1124 9.41388 24.2635 9.20923 14.5303H13.4803C13.6215 21.6726 16.7711 24.6994 19.2658 25.3236V14.5303H23.2913V20.6903C25.7471 20.4263 28.3441 17.6205 29.2159 14.5303H33.2414C32.5702 18.3347 29.7623 21.1426 27.767 22.2968C29.3276 23.0718 30.7059 24.1692 31.8109 25.5165C32.9158 26.8638 33.7222 28.4303 34.1767 30.1124H29.748C28.7964 27.1491 26.4245 24.857 23.2913 24.5459V30.1124H22.8063Z" fill="#8A89C3"/>
</svg>
