<svg width="44" height="44" viewBox="0 0 44 44" fill="none" xmlns="http://www.w3.org/2000/svg">
<path d="M22 44C34.1503 44 44 34.1503 44 22C44 9.84974 34.1503 0 22 0C9.84974 0 0 9.84974 0 22C0 34.1503 9.84974 44 22 44Z" fill="#8A89C3"/>
<path d="M22.806 30.1124C14.2761 30.1124 9.41364 24.2635 9.20898 14.5303H13.4801C13.6213 21.6726 16.7708 24.6994 19.2655 25.3236V14.5303H23.291V20.6903C25.7468 20.4263 28.3439 17.6205 29.2157 14.5303H33.2412C32.5699 18.3347 29.7621 21.1426 27.7668 22.2968C29.3274 23.0718 30.7057 24.1692 31.8106 25.5165C32.9156 26.8638 33.7219 28.4303 34.1764 30.1124H29.7478C28.7961 27.1491 26.4242 24.857 23.291 24.5459V30.1124H22.806Z" fill="white"/>
</svg>
